/* XPM */
static char * bottom_left_inactive_xpm[] = {
"5 3 3 1",
" 	c None",
".	c #B5B8C0 s active_color_2",
"+	c #808080 s inactive_border_color",
"+....",
"+....",
"+++++"};
