/* XPM */
static char * title_4_inactive_xpm[] = {
"5 26 3 1",
" 	c None",
".	c #B5B8C0 s active_color_2",
"+	c #808080 s inactive_border_color",
"+++++",
".....",
".....",
".....",
".....",
".....",
".....",
".....",
".....",
".....",
".....",
".....",
".....",
".....",
".....",
".....",
".....",
".....",
".....",
".....",
".....",
".....",
".....",
".....",
".....",
"....."};
