/* XPM */
static char * top_right_active_xpm[] = {
"6 26 6 1",
" 	c None",
".	c #B5B8C0 s active_color_2",
"+	c #808080 s active_border_color",
"@	c #B9B9B9",
"#	c #8A8A8A",
"$	c #ADADAD",
"+     ",
"@#+   ",
"..$+  ",
"...$+ ",
"....# ",
"....@+",
".....+",
".....+",
".....+",
".....+",
".....+",
".....+",
".....+",
".....+",
".....+",
".....+",
".....+",
".....+",
".....+",
".....+",
".....+",
".....+",
".....+",
".....+",
".....+",
".....+"};
